Coordinates
version=1
nRows=16
nColumns=22
inDegrees=yes

Units are S.I. units (second, meters, Newtons, ...)
If the header above contains a line with 'inDegrees', this indicates whether rotational values are in degrees (yes) or radians (no).

endheader
time	pelvis_tilt	pelvis_list	pelvis_rotation	pelvis_tx	pelvis_ty	pelvis_tz	hip_flexion_r	hip_adduction_r	hip_rotation_r	knee_angle_r	ankle_angle_r	subtalar_angle_r	hip_flexion_l	hip_adduction_l	hip_rotation_l	knee_angle_l	ankle_angle_l	subtalar_angle_l	lumbar_extension	lumbar_bending	lumbar_rotation
      0.01000000	     -8.78567700	      0.76400486	    -13.54506352	     -1.10079222	      0.88166531	     -0.02754012	      6.34907727	     -5.89964756	      8.26180828	     -4.33359598	     12.05440500	      3.47758719	      4.84452020	     -5.53434801	    -14.36237568	     -8.02753619	     14.17346804	      6.56629306	      4.71149812	      0.73816482	      9.88706450
      0.02000000	     -8.76870887	      0.76918131	    -13.52373689	     -1.10051818	      0.88162277	     -0.02748947	      6.31833171	     -5.91068767	      8.25815436	     -4.35419965	     12.10146882	      3.47633020	      4.82542693	     -5.52640534	    -14.33719388	     -8.05426395	     14.19387699	      6.56994444	      4.72088737	      0.74555583	      9.89910971
      0.03000000	     -8.74032033	      0.77166958	    -13.49011566	     -1.10020221	      0.88158514	     -0.02745218	      6.27285475	     -5.92326439	      8.24567925	     -4.38176751	     12.16092963	      3.47401107	      4.79802445	     -5.51787437	    -14.30903931	     -8.08989954	     14.23034655	      6.57391766	      4.71932199	      0.75574236	      9.89641362
      0.04000000	     -8.69807830	      0.76992178	    -13.44486611	     -1.09984411	      0.88156250	     -0.02743871	      6.20980538	     -5.93703221	      8.20872927	     -4.41468053	     12.22444568	      3.46887801	      4.75106069	     -5.50723793	    -14.28075634	     -8.11676187	     14.27061971	      6.58059778	      4.70328645	      0.77011734	      9.87821077
      0.05000000	     -8.65681581	      0.76886290	    -13.40125194	     -1.09949910	      0.88154209	     -0.02741335	      6.14670435	     -5.94986890	      8.18950449	     -4.44359634	     12.28407686	      3.46293382	      4.70790194	     -5.49760348	    -14.24167945	     -8.14773302	     14.30636842	      6.58858740	      4.68707380	      0.78160545	      9.87718145
      0.06000000	     -8.62697519	      0.76876043	    -13.36463467	     -1.09917962	      0.88151174	     -0.02737909	      6.09962167	     -5.95986720	      8.17880084	     -4.47303585	     12.32768439	      3.45843441	      4.68035174	     -5.49183159	    -14.20193170	     -8.18600322	     14.32965348	      6.59469077	      4.68098773	      0.79313632	      9.90435700
      0.07000000	     -8.57484669	      0.76101067	    -13.31010076	     -1.09884924	      0.88151236	     -0.02737389	      6.03206065	     -5.96763857	      8.12745020	     -4.52103940	     12.40436121	      3.44605788	      4.62148705	     -5.48447850	    -14.17058939	     -8.20280293	     14.37709097	      6.60890439	      4.64483590	      0.80547241	      9.89360777
      0.08000000	     -8.53535079	      0.75310402	    -13.26230474	     -1.09855942	      0.88150703	     -0.02735340	      5.97723416	     -5.97055116	      8.09037782	     -4.55935755	     12.45520192	      3.43523079	      4.57849963	     -5.48273310	    -14.12641952	     -8.22417700	     14.40590772	      6.62342348	      4.61751598	      0.81476322	      9.91975969
      0.09000000	     -8.51695790	      0.74890763	    -13.22156551	     -1.09830773	      0.88148127	     -0.02733400	      5.94492653	     -5.97224880	      8.06733121	     -4.58699413	     12.48276333	      3.43016372	      4.56224533	     -5.48333851	    -14.09011002	     -8.25072598	     14.41956876	      6.62992125	      4.60898469	      0.82275021	      9.97329525
      0.10000000	     -8.47677099	      0.73357135	    -13.15892702	     -1.09807102	      0.88148523	     -0.02735743	      5.90044025	     -5.96731924	      7.99873466	     -4.64908420	     12.55382929	      3.41506764	      4.52049978	     -5.48686034	    -14.03882817	     -8.26424671	     14.46417744	      6.64534659	      4.56287834	      0.83243464	      9.99305711
      0.11000000	     -8.46763488	      0.72772823	    -13.10800821	     -1.09787988	      0.88145968	     -0.02736140	      5.87663001	     -5.96506442	      7.97369003	     -4.67053260	     12.57199851	      3.41032566	      4.51832893	     -5.49098455	    -13.99889364	     -8.28626784	     14.46921911	      6.65023998	      4.54758356	      0.83115749	     10.06163545
      0.12000000	     -8.43880157	      0.71101750	    -13.03160602	     -1.09769283	      0.88145584	     -0.02743747	      5.84713879	     -5.95856483	      7.88482170	     -4.73580229	     12.63640291	      3.39218167	      4.49311617	     -5.49606936	    -13.92005072	     -8.29815353	     14.50721598	      6.66234919	      4.49790144	      0.83670170	     10.09272011
      0.13000000	     -8.42757996	      0.70007086	    -12.95498253	     -1.09753166	      0.88143817	     -0.02751738	      5.82433850	     -5.95546039	      7.81446902	     -4.77099474	     12.67166769	      3.37655878	      4.49057095	     -5.49952173	    -13.84370089	     -8.31107424	     14.51949826	      6.66941661	      4.46262248	      0.83218224	     10.14618288
      0.14000000	     -8.42276248	      0.69045836	    -12.87358322	     -1.09738210	      0.88141294	     -0.02761952	      5.80854445	     -5.95341270	      7.74062953	     -4.80539028	     12.70541538	      3.36092988	      4.49381809	     -5.50108279	    -13.76285413	     -8.31908836	     14.53196276	      6.67240813	      4.42941031	      0.82433202	     10.20170161
      0.15000000	     -8.42904700	      0.68361558	    -12.80701068	     -1.09726327	      0.88138007	     -0.02770363	      5.79721558	     -5.95178994	      7.70349742	     -4.81362593	     12.71930587	      3.35560636	      4.51019007	     -5.50496060	    -13.71312276	     -8.33106204	     14.53124232	      6.67341506	      4.40138119	      0.81106096	     10.28973315
      0.16000000	     -8.42941743	      0.67854658	    -12.70090679	     -1.09713603	      0.88135124	     -0.02787882	      5.79184167	     -5.95732390	      7.58087981	     -4.86196798	     12.76537385	      3.33357534	      4.51621185	     -5.49525857	    -13.59196521	     -8.31695305	     14.54476563	      6.67119688	      4.36111344	      0.79169527	     10.31938033
